# Blender v2.82 (sub 7) OBJ File: 'uploads-files-2053440-Dangerous+Tank.blend'
# www.blender.org
mtllib boxes.mtl
o Wooden_box_v1
v -3.060273 1.278710 -2.268869
v -0.982313 1.278710 -2.268869
v -0.982313 1.278710 -5.670183
v -3.060273 1.278710 -5.670183
v -3.060273 0.003086 -2.268870
v -0.982313 0.003086 -2.268870
v -3.060273 0.003087 -5.670183
v -0.982313 0.003087 -5.670183
v 0.541492 1.278710 -2.268869
v 2.619454 1.278710 -2.268869
v 2.619454 1.278710 -5.670183
v 0.541492 1.278710 -5.670183
v 0.541492 1.028491 -2.373341
v 0.541492 0.246926 -2.373341
v 0.541492 0.003086 -2.268870
v 0.541492 0.003087 -5.670183
v 2.619454 0.003087 -5.670183
v 2.619454 0.003086 -2.268870
v 0.621522 1.028492 -5.576057
v 0.621522 0.246927 -5.576057
v 0.621522 0.246926 -2.373341
v 0.621522 1.028491 -2.373341
v 0.541492 1.028492 -5.576057
v 0.541492 0.246927 -5.576057
v 0.558963 0.360074 -5.576057
v 0.558963 0.246927 -5.569451
v 0.558963 0.910496 -2.373341
v 0.558963 1.028491 -2.373341
v 0.630363 0.360074 -5.576057
v 0.630363 1.028491 -2.373341
v 0.630363 0.246927 -5.562847
v 0.630363 0.910496 -2.373341
v 2.469506 0.255258 -2.268870
v 0.696369 0.255258 -2.268870
v 0.696369 1.039492 -2.341714
v 0.696369 0.255258 -2.341714
v 2.469506 0.255258 -2.341714
v 2.469506 1.039492 -2.341714
v 0.696369 0.962508 -2.280613
v 2.469506 0.265427 -2.280614
v 2.469506 0.366301 -2.280614
v 0.696369 1.039492 -2.280613
v 0.739687 1.039492 -2.280613
v 2.469506 0.265427 -2.342725
v 0.696369 0.962508 -2.342725
v 2.469506 0.366301 -2.342725
v 0.739687 1.039492 -2.342725
v 2.469506 1.039492 -2.268869
v 0.696369 1.039492 -2.268869
v 0.541492 1.028491 -2.268869
v 0.541492 0.246926 -2.268870
v 2.619454 1.028492 -5.565713
v 2.619454 0.246927 -5.565713
v 2.539424 1.028489 -2.362996
v 2.539424 0.246926 -2.362996
v 2.539424 0.246927 -5.565713
v 2.539424 1.028492 -5.565713
v 2.619454 1.028489 -2.362996
v 2.619454 0.246926 -2.362996
v 2.601984 0.360073 -2.362996
v 2.601984 0.246926 -2.369602
v 2.601984 0.910496 -5.565713
v 2.601984 1.028492 -5.565713
v 2.530583 0.360073 -2.362996
v 2.530583 1.028492 -5.565713
v 2.530583 0.246926 -2.376207
v 2.530583 0.910496 -5.565713
v 0.691440 0.255258 -5.670185
v 2.464577 0.255258 -5.670185
v 2.464577 1.039493 -5.597341
v 2.464577 0.255258 -5.597341
v 0.691440 0.255258 -5.597341
v 0.691440 1.039493 -5.597341
v 2.464577 0.962509 -5.658441
v 0.691440 0.265427 -5.658441
v 0.691440 0.366302 -5.658441
v 2.464577 1.039493 -5.658441
v 2.421259 1.039493 -5.658441
v 0.691440 0.265427 -5.596328
v 2.464577 0.962509 -5.596328
v 0.691440 0.366302 -5.596328
v 2.421259 1.039493 -5.596328
v 0.691440 1.039493 -5.670185
v 2.464577 1.039493 -5.670185
v 2.619454 1.028490 -5.670185
v 2.619454 0.246927 -5.670185
v -2.692672 1.546611 0.779527
v -1.153393 1.546611 0.779527
v -1.153393 1.546611 -0.759753
v -2.692672 1.546611 -0.759751
v -2.692672 0.003086 -0.759751
v -2.692672 0.003085 0.779526
v -1.153393 0.003085 0.779526
v -1.153393 0.003086 -0.759753
v 0.733271 1.546613 0.779527
v 2.272550 1.546613 0.779527
v 2.272550 1.546613 -0.759751
v 0.733271 1.546613 -0.759751
v 0.732841 0.003086 -0.759576
v 0.733271 0.163809 -0.634948
v 0.733271 1.342094 -0.634947
v 0.791308 1.342094 -0.634947
v 0.791308 0.163809 -0.634948
v 0.791308 0.163808 0.656980
v 0.791308 1.342093 0.656980
v 0.794031 1.342094 -0.526062
v 0.749755 1.342094 -0.526062
v 0.749755 0.173966 0.656980
v 0.794031 0.184125 0.656980
v 0.749755 0.163808 0.561883
v 0.749755 1.335879 -0.634947
v 0.794031 1.329666 -0.634947
v 0.794031 0.163808 0.561883
v 0.733271 0.163808 0.656980
v 0.733271 1.342093 0.656980
v 0.732839 0.003085 0.779701
v 2.272119 0.003085 0.779701
v 2.272550 0.163808 0.654723
v 2.272550 1.342093 0.654723
v 2.214513 1.342093 0.654723
v 2.214513 0.163808 0.654723
v 2.214513 0.163809 -0.637205
v 2.214513 1.342094 -0.637205
v 2.211790 1.342093 0.545838
v 2.256066 1.342093 0.545838
v 2.256066 0.173968 -0.637205
v 2.211790 0.184127 -0.637205
v 2.256066 0.163809 -0.542108
v 2.256066 1.335880 0.654723
v 2.211790 1.329667 0.654723
v 2.211790 0.163809 -0.542108
v 2.272550 0.163809 -0.637205
v 2.272550 1.342094 -0.637205
v 2.272121 0.003086 -0.759576
v 0.775629 0.070108 0.729532
v 0.775629 0.070108 -0.713072
v 2.225107 0.070106 -0.713072
v 2.225107 0.070106 0.729532
v 0.897794 0.073252 0.729532
v 0.897792 0.022122 0.729532
v 2.225107 0.022120 -0.688197
v 2.225107 0.073251 -0.688197
v 2.118414 0.022120 -0.713072
v 0.775629 0.022122 0.714316
v 0.775629 0.073252 0.714318
v 2.118414 0.073251 -0.713072
v 2.225107 0.022120 -0.713072
v 0.775629 0.022122 0.729532
v 0.775629 0.003085 0.729532
v 0.775629 0.003086 -0.713072
v 2.225107 0.003086 -0.713072
v 2.225107 0.003085 0.729532
v 2.147745 1.337189 0.779527
v 2.147743 0.164677 0.779526
v 2.147743 0.164677 0.721489
v 2.147745 1.337189 0.721489
v 0.855817 1.337188 0.721489
v 0.855817 0.164677 0.721489
v 2.038860 0.164677 0.718766
v 2.038860 0.164677 0.763044
v 0.855817 1.327080 0.763044
v 0.855817 1.316970 0.718766
v 0.950914 1.337188 0.763044
v 2.147743 0.170861 0.763044
v 2.147743 0.177044 0.718766
v 0.950914 1.337188 0.718766
v 0.855817 1.337188 0.779527
v 0.855817 0.164677 0.779526
v 0.858076 1.337190 -0.759751
v 0.858076 0.164677 -0.759751
v 0.858076 0.164677 -0.701714
v 0.858076 1.337190 -0.701713
v 2.150002 1.337188 -0.701713
v 2.150004 0.164677 -0.701714
v 0.966961 0.164677 -0.698991
v 0.966961 0.164677 -0.743269
v 2.150002 1.327080 -0.743268
v 2.150002 1.316970 -0.698991
v 2.054907 1.337188 -0.743268
v 0.858076 0.170861 -0.743269
v 0.858076 0.177044 -0.698991
v 2.054907 1.337188 -0.698991
v 2.150002 1.337188 -0.759751
v 2.150004 0.164677 -0.759751
vt 0.770395 0.670377
vt 0.009692 0.322426
vt 0.770395 0.322426
vt 0.487249 0.673077
vt 0.009513 0.997968
vt 0.009513 0.673077
vt 0.770582 0.000795
vt 0.009645 0.320514
vt 0.009645 0.000795
vt 0.009513 0.997968
vt 0.487249 0.673077
vt 0.009513 0.673077
vt 0.009645 0.320514
vt 0.770582 0.000795
vt 0.009645 0.000795
vt 0.009692 0.322426
vt 0.770395 0.670377
vt 0.770395 0.322426
vt 0.770395 0.670377
vt 0.009692 0.322426
vt 0.770395 0.322426
vt 0.747210 0.257800
vt 0.770582 0.000795
vt 0.770582 0.320514
vt 0.009692 0.322426
vt 0.770395 0.670377
vt 0.770395 0.322426
vt 0.030703 0.061910
vt 0.747210 0.257800
vt 0.030703 0.257800
vt 0.753791 0.257800
vt 0.767760 0.061910
vt 0.767760 0.257800
vt 0.012316 0.061910
vt 0.025543 0.257800
vt 0.012316 0.257800
vt 0.016339 0.294211
vt 0.758053 0.279272
vt 0.758053 0.294211
vt 0.758053 0.039325
vt 0.016339 0.024669
vt 0.758053 0.024669
vt 0.030703 0.090269
vt 0.747210 0.228226
vt 0.747210 0.257800
vt 0.758164 0.036943
vt 0.015319 0.011977
vt 0.758164 0.011977
vt 0.758164 0.061910
vt 0.015319 0.036943
vt 0.758164 0.036943
vt 0.487249 0.673077
vt 0.045120 0.737303
vt 0.009513 0.673077
vt 0.045120 0.737303
vt 0.452775 0.937041
vt 0.045120 0.937041
vt 0.045120 0.917434
vt 0.452775 0.765585
vt 0.045120 0.937041
vt 0.055079 0.937041
vt 0.487249 0.726156
vt 0.009513 0.698337
vt 0.487249 0.698337
vt 0.009513 0.975059
vt 0.487249 0.951463
vt 0.487249 0.975059
vt 0.024009 0.937041
vt 0.045120 0.737303
vt 0.045120 0.937041
vt 0.045120 0.737303
vt 0.024009 0.937041
vt 0.045120 0.937041
vt 0.487249 0.726156
vt 0.009513 0.698337
vt 0.487249 0.698337
vt 0.009513 0.975059
vt 0.487249 0.951463
vt 0.487249 0.975059
vt 0.487249 0.997968
vt 0.045120 0.937041
vt 0.452775 0.937041
vt 0.009513 0.934239
vt 0.009513 0.735181
vt 0.452775 0.737303
vt 0.009645 0.320514
vt 0.030703 0.257800
vt 0.009645 0.000795
vt 0.030703 0.061910
vt 0.747210 0.061910
vt 0.747210 0.257800
vt 0.770582 0.000795
vt 0.770582 0.320514
vt 0.030703 0.257800
vt 0.747210 0.061910
vt 0.747210 0.257800
vt 0.753791 0.257800
vt 0.767760 0.061910
vt 0.767760 0.257800
vt 0.012316 0.061910
vt 0.025543 0.257800
vt 0.012316 0.257800
vt 0.016339 0.294211
vt 0.758053 0.279272
vt 0.758053 0.294211
vt 0.758053 0.039325
vt 0.016339 0.024669
vt 0.758053 0.024669
vt 0.030703 0.090269
vt 0.747210 0.228226
vt 0.747210 0.257800
vt 0.758164 0.036943
vt 0.015319 0.011977
vt 0.758164 0.011977
vt 0.758164 0.061910
vt 0.015319 0.036943
vt 0.758164 0.036943
vt 0.009645 0.320514
vt 0.030703 0.257800
vt 0.009645 0.000795
vt 0.030703 0.061910
vt 0.747210 0.061910
vt 0.487249 0.673077
vt 0.045120 0.737303
vt 0.009513 0.673077
vt 0.045120 0.737303
vt 0.452775 0.937041
vt 0.045120 0.937041
vt 0.045120 0.917434
vt 0.452775 0.765585
vt 0.045120 0.937041
vt 0.055079 0.937041
vt 0.487249 0.726156
vt 0.009513 0.698337
vt 0.487249 0.698337
vt 0.009513 0.975059
vt 0.487249 0.951463
vt 0.487249 0.975059
vt 0.024009 0.937041
vt 0.045120 0.737303
vt 0.045120 0.937041
vt 0.045120 0.737303
vt 0.024009 0.937041
vt 0.045120 0.937041
vt 0.487249 0.726156
vt 0.009513 0.698337
vt 0.487249 0.698337
vt 0.009513 0.975059
vt 0.487249 0.951463
vt 0.487249 0.975059
vt 0.487249 0.997968
vt 0.045120 0.937041
vt 0.452775 0.937041
vt 0.009513 0.934239
vt 0.009513 0.735181
vt 0.452775 0.737303
vt 0.413324 0.670377
vt 0.038509 0.322426
vt 0.413324 0.322426
vt 0.787925 0.683264
vt 0.490123 0.998841
vt 0.490123 0.683264
vt 0.781221 0.673891
vt 0.497586 0.989468
vt 0.497586 0.673891
vt 0.781221 0.673891
vt 0.497586 0.989468
vt 0.497586 0.673891
vt 0.787925 0.683264
vt 0.490123 0.998841
vt 0.490123 0.683264
vt 0.787925 0.707729
vt 0.490123 0.966771
vt 0.490123 0.707729
vt 0.413324 0.670377
vt 0.038509 0.322426
vt 0.413324 0.322426
vt 0.490123 0.683264
vt 0.514269 0.957027
vt 0.490123 0.998841
vt 0.514269 0.716124
vt 0.764216 0.957027
vt 0.514269 0.957027
vt 0.768152 0.957027
vt 0.779076 0.716124
vt 0.779076 0.957027
vt 0.499357 0.954414
vt 0.511606 0.716124
vt 0.511606 0.954414
vt 0.745818 0.716124
vt 0.535334 0.957027
vt 0.514269 0.955756
vt 0.764216 0.957027
vt 0.781275 0.716124
vt 0.781275 0.957027
vt 0.497385 0.716124
vt 0.514269 0.955664
vt 0.497385 0.955664
vt 0.778042 0.716124
vt 0.500288 0.699694
vt 0.778042 0.699694
vt 0.778042 0.699694
vt 0.500288 0.683264
vt 0.778042 0.683264
vt 0.787925 0.683264
vt 0.514269 0.716124
vt 0.764216 0.957027
vt 0.787925 0.998841
vt 0.490123 0.683264
vt 0.514269 0.957027
vt 0.490123 0.998841
vt 0.514269 0.716124
vt 0.764216 0.957027
vt 0.514269 0.957027
vt 0.768152 0.957027
vt 0.779076 0.716124
vt 0.779076 0.957027
vt 0.499357 0.954414
vt 0.511606 0.716124
vt 0.511606 0.954414
vt 0.745818 0.716124
vt 0.535334 0.957027
vt 0.514269 0.955756
vt 0.764216 0.957027
vt 0.781275 0.716124
vt 0.781275 0.957027
vt 0.497385 0.716124
vt 0.514269 0.955664
vt 0.497385 0.955664
vt 0.778042 0.716124
vt 0.500288 0.699694
vt 0.778042 0.699694
vt 0.778042 0.699694
vt 0.500288 0.683264
vt 0.778042 0.683264
vt 0.787925 0.683264
vt 0.514269 0.716124
vt 0.764216 0.957027
vt 0.787925 0.998841
vt 0.514269 0.716124
vt 0.764216 0.957027
vt 0.514269 0.957027
vt 0.779076 0.957027
vt 0.768152 0.716124
vt 0.779076 0.716124
vt 0.499357 0.716124
vt 0.511606 0.954414
vt 0.499357 0.954414
vt 0.514269 0.954486
vt 0.764216 0.716124
vt 0.514269 0.957027
vt 0.764216 0.720278
vt 0.535334 0.957027
vt 0.764216 0.957027
vt 0.781275 0.716124
vt 0.781275 0.957027
vt 0.497385 0.716124
vt 0.514269 0.955664
vt 0.497385 0.955664
vt 0.778042 0.716124
vt 0.500288 0.699694
vt 0.778042 0.699694
vt 0.778042 0.699694
vt 0.500288 0.683264
vt 0.778042 0.683264
vt 0.764216 0.716124
vt 0.506742 0.708416
vt 0.772175 0.708416
vt 0.764216 0.957027
vt 0.772175 0.965463
vt 0.506742 0.965463
vt 0.514269 0.957027
vt 0.514269 0.716124
vt 0.490123 0.990227
vt 0.490034 0.673709
vt 0.514269 0.957027
vt 0.764216 0.716124
vt 0.764216 0.957027
vt 0.768152 0.957027
vt 0.779076 0.716124
vt 0.779076 0.957027
vt 0.499357 0.954414
vt 0.511606 0.716124
vt 0.511606 0.954414
vt 0.745818 0.716124
vt 0.535334 0.957027
vt 0.514269 0.955756
vt 0.764216 0.957027
vt 0.781275 0.716124
vt 0.781275 0.957027
vt 0.497385 0.716124
vt 0.514269 0.955664
vt 0.497385 0.955664
vt 0.778042 0.716124
vt 0.500288 0.699694
vt 0.778042 0.699694
vt 0.778042 0.699694
vt 0.500288 0.683264
vt 0.778042 0.683264
vt 0.787837 0.673709
vt 0.787925 0.990227
vt 0.764216 0.716124
vt 0.514269 0.957027
vt 0.514269 0.716124
vt 0.490123 0.990227
vt 0.490034 0.673709
vt 0.514269 0.957027
vt 0.764216 0.716124
vt 0.764216 0.957027
vt 0.768152 0.957027
vt 0.779076 0.716124
vt 0.779076 0.957027
vt 0.499357 0.954414
vt 0.511606 0.716124
vt 0.511606 0.954414
vt 0.745818 0.716124
vt 0.535334 0.957027
vt 0.514269 0.955756
vt 0.764216 0.957027
vt 0.781275 0.716124
vt 0.781275 0.957027
vt 0.497385 0.716124
vt 0.514269 0.955664
vt 0.497385 0.955664
vt 0.778042 0.716124
vt 0.500288 0.699694
vt 0.778042 0.699694
vt 0.778042 0.699694
vt 0.500288 0.683264
vt 0.778042 0.683264
vt 0.787837 0.673709
vt 0.787925 0.990227
vt 0.764216 0.716124
vt 0.514269 0.957027
vt 0.009692 0.670377
vt 0.487249 0.997968
vt 0.770582 0.320514
vt 0.487249 0.997968
vt 0.770582 0.320514
vt 0.009692 0.670377
vt 0.009692 0.670377
vt 0.009692 0.670377
vt 0.747210 0.061910
vt 0.753791 0.061910
vt 0.025543 0.061910
vt 0.016339 0.279272
vt 0.016339 0.039325
vt 0.032180 0.061910
vt 0.015319 0.036943
vt 0.015319 0.061910
vt 0.452775 0.737303
vt 0.452775 0.739893
vt 0.009513 0.726156
vt 0.009513 0.951463
vt 0.024009 0.737303
vt 0.024009 0.737303
vt 0.009513 0.726156
vt 0.009513 0.951463
vt 0.009513 0.997968
vt 0.030703 0.061910
vt 0.753791 0.061910
vt 0.025543 0.061910
vt 0.016339 0.279272
vt 0.016339 0.039325
vt 0.032180 0.061910
vt 0.015319 0.036943
vt 0.015319 0.061910
vt 0.452775 0.737303
vt 0.452775 0.739893
vt 0.009513 0.726156
vt 0.009513 0.951463
vt 0.024009 0.737303
vt 0.024009 0.737303
vt 0.009513 0.726156
vt 0.009513 0.951463
vt 0.009513 0.997968
vt 0.038509 0.670377
vt 0.787925 0.998841
vt 0.781221 0.989468
vt 0.781221 0.989468
vt 0.787925 0.998841
vt 0.787925 0.966771
vt 0.038509 0.670377
vt 0.764216 0.716124
vt 0.768152 0.716124
vt 0.499357 0.716124
vt 0.764216 0.718201
vt 0.764216 0.716124
vt 0.514269 0.716124
vt 0.500288 0.716124
vt 0.500288 0.699694
vt 0.764216 0.716124
vt 0.764216 0.716124
vt 0.768152 0.716124
vt 0.499357 0.716124
vt 0.764216 0.718201
vt 0.764216 0.716124
vt 0.514269 0.716124
vt 0.500288 0.716124
vt 0.500288 0.699694
vt 0.764216 0.716124
vt 0.764216 0.716124
vt 0.768152 0.957027
vt 0.511606 0.716124
vt 0.745818 0.716124
vt 0.764216 0.716124
vt 0.514269 0.716124
vt 0.500288 0.716124
vt 0.500288 0.699694
vt 0.514269 0.716124
vt 0.514269 0.716124
vt 0.768152 0.716124
vt 0.499357 0.716124
vt 0.764216 0.718201
vt 0.764216 0.716124
vt 0.514269 0.716124
vt 0.500288 0.716124
vt 0.500288 0.699694
vt 0.764216 0.957027
vt 0.514269 0.716124
vt 0.768152 0.716124
vt 0.499357 0.716124
vt 0.764216 0.718201
vt 0.764216 0.716124
vt 0.514269 0.716124
vt 0.500288 0.716124
vt 0.500288 0.699694
vt 0.764216 0.957027
vn 0.0000 1.0000 0.0000
vn 0.0000 -0.0000 1.0000
vn -1.0000 0.0000 0.0000
vn 0.0000 0.0000 -1.0000
vn 1.0000 0.0000 0.0000
vn 0.0000 -1.0000 -0.0000
vn 0.0000 0.9789 -0.2043
vn 0.0088 -0.9790 0.2039
vn -0.0277 -0.9788 0.2030
vn 0.0094 -0.9790 0.2039
vn -0.3659 -0.9307 0.0000
vn 0.3627 0.9319 0.0000
vn 0.0000 0.9789 0.2043
vn -0.0088 -0.9790 -0.2039
vn 0.0277 -0.9788 -0.2030
vn -0.0094 -0.9790 -0.2039
vn 0.3659 -0.9307 0.0000
vn -0.3627 0.9319 0.0000
vn -1.0000 0.0015 0.0017
vn -1.0000 0.0002 -0.0003
vn -1.0000 0.0001 -0.0003
vn 0.0768 0.7110 0.6990
vn -0.2360 0.6930 0.6812
vn 0.0809 0.7108 0.6987
vn 0.0460 -0.7164 -0.6962
vn -0.1453 -0.7060 -0.6931
vn 0.0510 -0.7163 -0.6959
vn -1.0000 0.0017 -0.0020
vn -1.0000 0.0012 0.0027
vn -1.0000 0.0001 0.0007
vn -1.0000 0.0001 0.0003
vn 1.0000 -0.0015 0.0018
vn 1.0000 -0.0002 -0.0003
vn 1.0000 -0.0001 -0.0003
vn -0.0768 0.7110 -0.6990
vn 0.2360 0.6930 -0.6812
vn -0.0809 0.7108 -0.6987
vn -0.0460 -0.7164 0.6962
vn 0.1453 -0.7060 0.6931
vn -0.0510 -0.7163 0.6959
vn 1.0000 -0.0016 -0.0019
vn 1.0000 -0.0012 0.0027
vn 1.0000 -0.0001 0.0006
vn 1.0000 -0.0001 0.0002
vn 0.7300 -0.0000 0.6834
vn -0.7284 0.0000 -0.6852
vn 0.0003 0.0000 1.0000
vn -0.0005 0.0006 1.0000
vn 0.0004 -0.0000 1.0000
vn -0.6973 -0.7127 -0.0766
vn -0.6796 -0.6948 0.2355
vn -0.6970 -0.7125 -0.0807
vn 0.6944 0.7181 -0.0459
vn 0.6914 0.7078 0.1449
vn 0.6941 0.7180 -0.0508
vn -0.0004 0.0001 1.0000
vn 0.0005 0.0006 1.0000
vn 0.0001 0.0001 1.0000
vn -0.0007 0.0005 1.0000
vn 0.0003 -0.0000 -1.0000
vn -0.0005 -0.0006 -1.0000
vn 0.0004 0.0000 -1.0000
vn 0.6973 -0.7127 0.0766
vn 0.6796 -0.6948 -0.2355
vn 0.6970 -0.7125 0.0807
vn -0.6944 0.7181 0.0459
vn -0.6914 0.7078 -0.1449
vn -0.6941 0.7180 0.0508
vn 0.0001 -0.0000 -1.0000
vn 0.0005 -0.0006 -1.0000
vn -0.0002 -0.0001 -1.0000
vn -0.0007 -0.0005 -1.0000
vn -0.0282 -0.9788 0.2030
vn 0.0282 -0.9788 -0.2030
vn -0.2394 0.6924 0.6807
vn -0.1500 -0.7054 -0.6927
vn -1.0000 0.0013 -0.0024
vn 0.2394 0.6924 -0.6807
vn 0.1500 -0.7054 0.6927
vn 1.0000 -0.0013 -0.0024
vn -0.6791 -0.6942 0.2388
vn 0.6910 0.7072 0.1496
vn 0.0008 0.0005 1.0000
vn 0.6791 -0.6942 -0.2388
vn -0.6910 0.7072 -0.1496
vn 0.0008 -0.0005 -1.0000
usemtl Wooden_box_v1
s 1
f 2/1/1 4/2/1 1/3/1
f 6/4/2 1/5/2 5/6/2
f 5/7/3 4/8/3 7/9/3
f 4/10/4 8/11/4 7/12/4
f 3/13/5 6/14/5 8/15/5
f 7/16/6 6/17/6 5/18/6
f 10/19/1 12/20/1 9/21/1
f 13/22/3 15/23/3 9/24/3
f 16/25/6 18/26/6 15/27/6
f 20/28/3 22/29/3 19/30/3
f 23/31/2 20/32/2 19/33/2
f 21/34/4 13/35/4 22/36/4
f 23/37/6 22/38/6 13/39/6
f 21/40/1 24/41/1 14/42/1
f 25/43/3 27/44/3 28/45/3
f 25/46/7 30/47/7 29/48/7
f 27/49/8 31/50/9 32/51/10
f 18/52/2 34/53/2 15/54/2
f 36/55/2 38/56/2 35/57/2
f 39/58/2 41/59/2 42/60/2
f 43/61/2 42/60/2 41/59/2
f 40/62/11 45/63/11 44/64/11
f 47/65/12 41/66/12 46/67/12
f 33/68/3 38/69/3 37/70/3
f 35/71/5 34/72/5 36/73/5
f 48/74/6 35/75/6 38/76/6
f 36/77/1 33/78/1 37/79/1
f 10/80/2 49/81/2 48/82/2
f 49/81/2 50/83/2 51/84/2
f 34/53/2 51/84/2 15/54/2
f 10/80/2 33/85/2 18/52/2
f 13/22/3 12/86/3 23/87/3
f 23/87/3 16/88/3 24/89/3
f 16/88/3 14/90/3 24/89/3
f 52/91/5 17/92/5 11/93/5
f 54/94/5 56/95/5 57/96/5
f 58/97/4 55/98/4 54/99/4
f 56/100/2 52/101/2 57/102/2
f 58/103/6 57/104/6 52/105/6
f 56/106/1 59/107/1 53/108/1
f 60/109/5 62/110/5 63/111/5
f 60/112/13 65/113/13 64/114/13
f 62/115/14 66/116/15 67/117/16
f 52/91/5 10/118/5 58/119/5
f 58/119/5 18/120/5 59/121/5
f 18/120/5 53/122/5 59/121/5
f 16/123/4 69/124/4 17/125/4
f 71/126/4 73/127/4 70/128/4
f 74/129/4 76/130/4 77/131/4
f 78/132/4 77/131/4 76/130/4
f 75/133/17 80/134/17 79/135/17
f 82/136/18 76/137/18 81/138/18
f 68/139/5 73/140/5 72/141/5
f 70/142/3 69/143/3 71/144/3
f 83/145/6 70/146/6 73/147/6
f 71/148/1 68/149/1 72/150/1
f 12/151/4 84/152/4 83/153/4
f 84/152/4 85/154/4 86/155/4
f 69/124/4 86/155/4 17/125/4
f 12/151/4 68/156/4 16/123/4
f 88/157/1 90/158/1 87/159/1
f 92/160/3 90/161/3 91/162/3
f 87/163/2 93/164/2 88/165/2
f 89/166/4 91/167/4 90/168/4
f 94/169/5 88/170/5 93/171/5
f 93/172/6 91/173/6 94/174/6
f 96/175/1 98/176/1 95/177/1
f 99/178/19 101/179/20 98/180/21
f 103/181/3 105/182/3 102/183/3
f 107/184/22 109/185/23 106/186/24
f 110/187/25 112/188/26 113/189/27
f 110/190/3 107/191/3 111/192/3
f 101/193/2 103/194/2 102/195/2
f 115/196/4 104/197/4 114/198/4
f 104/199/1 100/200/1 114/201/1
f 102/202/6 115/203/6 101/204/6
f 116/205/28 100/206/29 99/178/19
f 115/207/30 116/205/28 95/208/31
f 101/179/20 95/208/31 98/180/21
f 117/209/32 119/210/33 96/211/34
f 121/212/5 123/213/5 120/214/5
f 125/215/35 127/216/36 124/217/37
f 128/218/38 130/219/39 131/220/40
f 128/221/5 125/222/5 129/223/5
f 119/224/4 121/225/4 120/226/4
f 133/227/2 122/228/2 132/229/2
f 122/230/1 118/231/1 132/232/1
f 120/233/6 133/234/6 119/235/6
f 134/236/41 118/237/42 117/209/32
f 133/238/43 134/236/41 97/239/44
f 119/210/33 97/239/44 96/211/34
f 136/240/6 138/241/6 135/242/6
f 139/243/45 141/244/45 142/245/45
f 144/246/46 146/247/46 143/248/46
f 144/249/6 147/250/6 148/251/6
f 148/251/6 141/252/6 140/253/6
f 149/254/5 136/255/5 135/256/5
f 152/257/3 137/258/3 151/259/3
f 137/260/2 150/261/2 151/262/2
f 135/263/4 152/264/4 149/265/4
f 151/266/6 99/267/6 134/268/6
f 152/269/6 134/268/6 117/270/6
f 152/269/6 116/271/6 149/272/6
f 99/267/6 149/272/6 116/271/6
f 153/273/47 117/274/48 96/275/49
f 155/276/2 157/277/2 158/278/2
f 160/279/50 162/280/51 159/281/52
f 163/282/53 165/283/54 166/284/55
f 163/285/2 160/286/2 164/287/2
f 154/288/3 156/289/3 155/290/3
f 168/291/5 157/292/5 167/293/5
f 157/294/6 153/295/6 167/296/6
f 155/297/1 168/298/1 154/299/1
f 95/300/56 153/273/47 96/275/49
f 116/301/57 167/302/58 95/300/56
f 154/303/59 116/301/57 117/274/48
f 169/304/60 99/305/61 98/306/62
f 171/307/4 173/308/4 174/309/4
f 176/310/63 178/311/64 175/312/65
f 179/313/66 181/314/67 182/315/68
f 179/316/4 176/317/4 180/318/4
f 170/319/5 172/320/5 171/321/5
f 184/322/3 173/323/3 183/324/3
f 173/325/6 169/326/6 183/327/6
f 171/328/1 184/329/1 170/330/1
f 97/331/69 169/304/60 98/306/62
f 134/332/70 183/333/71 97/331/69
f 170/334/72 134/332/70 99/305/61
f 2/1/1 3/335/1 4/2/1
f 6/4/2 2/336/2 1/5/2
f 5/7/3 1/337/3 4/8/3
f 4/10/4 3/338/4 8/11/4
f 3/13/5 2/339/5 6/14/5
f 7/16/6 8/340/6 6/17/6
f 10/19/1 11/341/1 12/20/1
f 13/22/3 14/90/3 15/23/3
f 16/25/6 17/342/6 18/26/6
f 20/28/3 21/343/3 22/29/3
f 23/31/2 24/344/2 20/32/2
f 21/34/4 14/345/4 13/35/4
f 23/37/6 19/346/6 22/38/6
f 21/40/1 20/347/1 24/41/1
f 25/43/3 26/348/3 27/44/3
f 25/46/7 28/349/7 30/47/7
f 27/49/8 26/350/73 31/50/9
f 18/52/2 33/85/2 34/53/2
f 36/55/2 37/351/2 38/56/2
f 39/58/2 40/352/2 41/59/2
f 40/62/11 39/353/11 45/63/11
f 47/65/12 43/354/12 41/66/12
f 33/68/3 48/355/3 38/69/3
f 35/71/5 49/356/5 34/72/5
f 48/74/6 49/357/6 35/75/6
f 36/77/1 34/358/1 33/78/1
f 10/80/2 9/359/2 49/81/2
f 49/81/2 9/359/2 50/83/2
f 34/53/2 49/81/2 51/84/2
f 10/80/2 48/82/2 33/85/2
f 13/22/3 9/24/3 12/86/3
f 23/87/3 12/86/3 16/88/3
f 16/88/3 15/23/3 14/90/3
f 52/91/5 53/122/5 17/92/5
f 54/94/5 55/360/5 56/95/5
f 58/97/4 59/361/4 55/98/4
f 56/100/2 53/362/2 52/101/2
f 58/103/6 54/363/6 57/104/6
f 56/106/1 55/364/1 59/107/1
f 60/109/5 61/365/5 62/110/5
f 60/112/13 63/366/13 65/113/13
f 62/115/14 61/367/74 66/116/15
f 52/91/5 11/93/5 10/118/5
f 58/119/5 10/118/5 18/120/5
f 18/120/5 17/92/5 53/122/5
f 16/123/4 68/156/4 69/124/4
f 71/126/4 72/368/4 73/127/4
f 74/129/4 75/369/4 76/130/4
f 75/133/17 74/370/17 80/134/17
f 82/136/18 78/371/18 76/137/18
f 68/139/5 83/372/5 73/140/5
f 70/142/3 84/373/3 69/143/3
f 83/145/6 84/374/6 70/146/6
f 71/148/1 69/375/1 68/149/1
f 12/151/4 11/376/4 84/152/4
f 84/152/4 11/376/4 85/154/4
f 69/124/4 84/152/4 86/155/4
f 12/151/4 83/153/4 68/156/4
f 88/157/1 89/377/1 90/158/1
f 92/160/3 87/378/3 90/161/3
f 87/163/2 92/379/2 93/164/2
f 89/166/4 94/380/4 91/167/4
f 94/169/5 89/381/5 88/170/5
f 93/172/6 92/382/6 91/173/6
f 96/175/1 97/383/1 98/176/1
f 99/178/19 100/206/29 101/179/20
f 103/181/3 104/384/3 105/182/3
f 107/184/22 108/385/75 109/185/23
f 110/187/25 111/386/76 112/188/26
f 110/190/3 108/387/3 107/191/3
f 101/193/2 100/388/2 103/194/2
f 115/196/4 105/389/4 104/197/4
f 104/199/1 103/390/1 100/200/1
f 102/202/6 105/391/6 115/203/6
f 116/205/28 114/392/77 100/206/29
f 115/207/30 114/392/77 116/205/28
f 101/179/20 115/207/30 95/208/31
f 117/209/32 118/237/42 119/210/33
f 121/212/5 122/393/5 123/213/5
f 125/215/35 126/394/78 127/216/36
f 128/218/38 129/395/79 130/219/39
f 128/221/5 126/396/5 125/222/5
f 119/224/4 118/397/4 121/225/4
f 133/227/2 123/398/2 122/228/2
f 122/230/1 121/399/1 118/231/1
f 120/233/6 123/400/6 133/234/6
f 134/236/41 132/401/80 118/237/42
f 133/238/43 132/401/80 134/236/41
f 119/210/33 133/238/43 97/239/44
f 136/240/6 137/402/6 138/241/6
f 139/243/45 140/403/45 141/244/45
f 144/246/46 145/404/46 146/247/46
f 144/249/6 143/405/6 147/250/6
f 148/251/6 147/250/6 141/252/6
f 149/254/5 150/406/5 136/255/5
f 152/257/3 138/407/3 137/258/3
f 137/260/2 136/408/2 150/261/2
f 135/263/4 138/409/4 152/264/4
f 151/266/6 150/410/6 99/267/6
f 152/269/6 151/266/6 134/268/6
f 152/269/6 117/270/6 116/271/6
f 99/267/6 150/410/6 149/272/6
f 153/273/47 154/303/59 117/274/48
f 155/276/2 156/411/2 157/277/2
f 160/279/50 161/412/81 162/280/51
f 163/282/53 164/413/82 165/283/54
f 163/285/2 161/414/2 160/286/2
f 154/288/3 153/415/3 156/289/3
f 168/291/5 158/416/5 157/292/5
f 157/294/6 156/417/6 153/295/6
f 155/297/1 158/418/1 168/298/1
f 95/300/56 167/302/58 153/273/47
f 116/301/57 168/419/83 167/302/58
f 154/303/59 168/419/83 116/301/57
f 169/304/60 170/334/72 99/305/61
f 171/307/4 172/420/4 173/308/4
f 176/310/63 177/421/84 178/311/64
f 179/313/66 180/422/85 181/314/67
f 179/316/4 177/423/4 176/317/4
f 170/319/5 169/424/5 172/320/5
f 184/322/3 174/425/3 173/323/3
f 173/325/6 172/426/6 169/326/6
f 171/328/1 174/427/1 184/329/1
f 97/331/69 183/333/71 169/304/60
f 134/332/70 184/428/86 183/333/71
f 170/334/72 184/428/86 134/332/70
