# Blender v2.82 (sub 7) OBJ File: 'Ac unit.blend'
# www.blender.org
mtllib Ac.mtl
o AC_Cube
v 2.233412 3.322680 -1.000000
v 2.233412 0.153487 -1.000000
v 2.233412 3.322680 1.000000
v 2.233412 0.153487 1.000000
v -2.233412 3.322680 -1.000000
v -2.233412 0.153487 -1.000000
v -2.233412 3.322680 1.000000
v -2.233412 0.153487 1.000000
v 2.088962 0.255974 -1.000000
v -2.088962 0.255974 -1.000000
v 2.088962 3.220193 -1.000000
v -2.088962 3.220193 -1.000000
v 2.088962 0.255974 -0.810244
v -2.088962 0.255974 -0.810244
v 2.088962 3.220193 -0.810244
v -2.088962 3.220193 -0.810244
v -1.195086 0.153487 1.000000
v -1.195085 3.322680 1.000000
v 2.100424 3.322680 1.000000
v 2.100425 0.153487 1.000000
v 2.233412 3.228475 1.000000
v -2.233412 3.228476 1.000000
v -1.195085 3.228476 1.000000
v 2.100424 3.228475 1.000000
v -1.195085 3.228476 1.067782
v -1.195086 0.153487 1.067782
v 2.100425 0.153487 1.067782
v 2.100424 3.228475 1.067782
v -2.233412 3.228476 1.071112
v -2.233412 3.322680 1.071112
v 2.233412 3.228475 1.071112
v 2.233412 0.153487 1.071112
v -1.195085 3.322680 1.071112
v 2.100425 0.153487 1.071112
v 2.100424 3.322680 1.071112
v 2.233412 3.322680 1.071112
v 2.100424 3.228475 1.071112
v -1.195085 3.228476 1.071112
v -2.233412 0.153487 0.362789
v -2.233412 3.322680 0.362789
v -2.233412 3.282067 -1.000000
v -2.233412 3.282066 0.362789
v -2.233412 3.282066 1.000000
v -2.281965 3.282067 -1.000000
v -2.281965 0.153487 -1.000000
v -2.281965 0.153487 0.362789
v -2.281965 3.282066 0.362789
v -2.233412 0.533292 1.000000
v -2.233412 0.153487 0.591540
v -2.233412 0.533292 0.981921
v -2.233412 0.518669 0.981921
v -2.233412 0.518670 0.625944
v -2.233412 0.502108 0.625944
v -2.233412 0.502108 0.612488
v -2.233412 0.479441 0.612488
v -2.233412 0.466362 0.625567
v -2.233412 0.192664 0.625567
v -2.233412 0.192664 0.591541
v -2.238183 0.153487 0.591540
v -2.238183 0.153487 1.000000
v -2.238183 0.533292 1.000000
v -2.238183 0.533292 0.981921
v -2.238183 0.518669 0.981921
v -2.238183 0.518670 0.625944
v -2.238183 0.502108 0.625944
v -2.238183 0.502108 0.612488
v -2.238183 0.479441 0.612488
v -2.238183 0.466362 0.625567
v -2.238183 0.192664 0.625567
v -2.238183 0.192664 0.591541
v -2.238183 0.153487 0.771079
v -2.238183 0.153487 0.974489
v -2.238183 0.405527 0.771089
v -2.238183 0.419263 0.772340
v -2.238183 0.435437 0.781001
v -2.238183 0.447418 0.796489
v -2.238183 0.447418 0.941794
v -2.238183 0.440229 0.952806
v -2.238183 0.423456 0.970150
v -2.238183 0.388112 0.974493
v -2.233464 0.153487 0.771079
v -2.233464 0.153487 0.974489
v -2.233464 0.405527 0.771089
v -2.233464 0.419263 0.772340
v -2.233464 0.435437 0.781001
v -2.233464 0.447418 0.796489
v -2.233464 0.447418 0.941794
v -2.233464 0.440229 0.952806
v -2.233464 0.423456 0.970150
v -2.233464 0.388112 0.974493
v -2.281965 3.216957 0.362789
v -2.281965 3.216957 -1.000000
v -2.281965 1.813660 0.362789
v -2.281965 1.813660 -1.000000
v -2.281965 1.631294 0.362789
v -2.281965 1.631294 -1.000000
v -2.281965 0.221815 0.362789
v -2.281965 0.221815 -1.000000
v -2.297509 3.322680 0.362789
v -2.297509 3.322680 -1.000000
v -2.297509 3.282067 -1.000000
v -2.297509 3.282066 0.362789
vt 0.922733 0.924673
vt 0.259280 0.109833
vt 0.922733 0.109833
vt 0.259280 0.924673
vt 0.050244 0.924673
vt 0.050244 0.210478
vt 0.922733 0.924673
vt 0.922733 0.109833
vt 0.259280 0.109833
vt 0.259280 0.924673
vt 0.949506 0.924672
vt 0.922733 0.109833
vt 0.949506 0.109833
vt 0.922733 0.949636
vt 0.922733 0.924673
vt 0.259280 0.924673
vt 0.050244 0.949636
vt 0.050244 0.924673
vt 0.259280 0.949636
vt 0.050244 0.109833
vt 0.050244 0.109833
vt 0.949506 0.949636
vt 0.050244 0.210478
vt 0.756484 0.072666
vt 0.771340 0.072666
vt 0.771340 0.072666
vt 0.932798 0.716860
vt 0.658641 0.716860
vt 0.658641 0.706967
vt 0.658641 0.384033
vt 0.658641 0.384033
vt 0.658641 0.706967
vt 0.934815 0.930883
vt 0.934815 0.915996
vt 0.934815 0.942166
vt 0.656612 0.080764
vt 0.061626 0.061783
vt 0.656612 0.061783
vt 0.656612 0.942166
vt 0.656612 0.930883
vt 0.656612 0.912796
vt 0.656612 0.522969
vt 0.061627 0.930884
vt 0.656612 0.930883
vt 0.839201 0.140107
vt 0.771504 0.158627
vt 0.835420 0.135614
vt 0.765629 0.158628
vt 0.771504 0.163229
vt 0.765629 0.152331
vt 0.765629 0.158628
vt 0.926921 0.163228
vt 0.926921 0.163228
vt 0.756484 0.061783
vt 0.756484 0.072666
vt 0.771340 0.148697
vt 0.765629 0.152331
vt 0.771504 0.158627
vt 0.771504 0.163229
vt 0.926921 0.167290
vt 0.934815 0.167291
vt 0.934815 0.167291
vt 0.771340 0.148697
vt 0.926921 0.167290
vt 0.834873 0.131799
vt 0.923679 0.126960
vt 0.909402 0.143435
vt 0.914210 0.141438
vt 0.921783 0.136779
vt 0.921783 0.136779
vt 0.845963 0.143435
vt 0.845963 0.143435
vt 0.834869 0.061783
vt 0.834873 0.131799
vt 0.923679 0.126960
vt 0.909402 0.143435
vt 0.835420 0.135614
vt 0.923677 0.061783
vt 0.923677 0.061783
vt 0.914210 0.141438
vt 0.839201 0.140107
vt 0.061627 0.930884
vt 0.061627 0.912797
vt 0.061627 0.522969
vt 0.656612 0.472309
vt 0.061627 0.472309
vt 0.061626 0.080764
vt 0.656612 0.930883
vt 0.061627 0.942166
vt 0.061627 0.930884
vt 0.932798 0.384032
vt 0.658641 0.716860
vt 0.934815 0.942166
vt 0.934815 0.915996
vt 0.656612 0.061783
vt 0.934815 0.061783
vt 0.756484 0.061783
vt 0.834869 0.061783
vt 0.656612 0.942166
vt 0.066369 0.360945
vt 0.248202 0.353399
vt 0.066369 0.547928
vt 0.066369 0.353399
vt 0.066369 0.353399
vt 0.066369 0.360945
vt 0.066369 0.606842
vt 0.066369 0.547928
vt 0.248202 0.606842
vt 0.124302 0.606842
vt 0.124302 0.606842
vt 0.066369 0.606842
vt 0.248202 0.606842
vt 0.057852 0.537635
vt 0.062990 0.537635
vt 0.062990 0.537635
vt 0.230413 0.614266
vt 0.057852 0.778154
vt 0.190301 0.537635
vt 0.190301 0.537635
vt 0.230413 0.778154
vt 0.230413 0.778154
vt 0.230413 0.537635
vt 0.230413 0.540703
vt 0.230413 0.565165
vt 0.230413 0.565165
vt 0.057852 0.537635
vt 0.230413 0.586756
vt 0.062990 0.537635
vt 0.230413 0.614266
vt 0.230413 0.586756
vt 0.230413 0.537635
vt 0.230413 0.540703
vt 0.000090 0.035546
vt 0.999971 0.964180
vt 0.000090 0.964180
vt 0.999971 0.035546
vt 0.413424 0.525127
vt 0.417171 0.523165
vt 0.596666 0.523165
vt 0.669954 0.364848
vt 0.704342 0.832509
vt 0.669954 0.832509
vt 0.602872 0.525127
vt 0.596666 0.466438
vt 0.602872 0.464476
vt 0.410965 0.464476
vt 0.410965 0.525127
vt 0.417171 0.466438
vt 0.877397 0.798880
vt 0.850614 0.460427
vt 0.877397 0.460427
vt 0.718600 0.391969
vt 0.752989 0.826527
vt 0.718600 0.826527
vt 0.920262 0.828712
vt 0.885874 0.361051
vt 0.920262 0.361051
vt 0.598735 0.525127
vt 0.513385 0.525127
vt 0.410965 0.525127
vt 0.704342 0.364848
vt 0.850614 0.798880
vt 0.752989 0.391969
vt 0.885874 0.828712
vt 0.413424 0.525127
vt 0.417367 0.525127
vt 0.502342 0.525127
vt 0.602872 0.525127
vt 0.413424 0.525127
vn 0.0000 0.0000 1.0000
vn 1.0000 0.0000 0.0000
vn 0.0000 1.0000 0.0000
vn -1.0000 0.0000 0.0000
vn 0.0000 -1.0000 0.0000
vn 0.0000 0.0000 -1.0000
vn 0.0000 -0.7071 -0.7071
vn 0.0000 -0.7188 -0.6952
vn 0.0000 -0.7910 0.6119
vn 0.0000 -0.1219 -0.9925
vn 0.0000 -0.0907 0.9959
vn 0.0000 -0.8374 -0.5466
vn 0.0000 -0.4721 0.8816
vn 0.0000 -0.7910 0.6118
vn 0.0000 -0.1220 -0.9925
vn 0.0000 -0.8374 -0.5467
vn 0.0000 -0.4720 0.8816
usemtl Ac_front
s off
f 28/1/1 26/2/1 27/3/1
f 23/4/1 22/5/1 48/6/1
f 24/7/2 27/3/2 20/8/2
f 23/4/3 28/1/3 24/7/3
f 17/9/4 25/10/4 23/4/4
f 31/11/1 34/12/1 32/13/1
f 31/11/1 35/14/1 37/15/1
f 38/16/1 30/17/1 29/18/1
f 38/16/1 35/14/1 33/19/1
f 23/4/5 29/18/5 22/5/5
f 20/8/4 37/15/4 24/7/4
f 24/7/5 38/16/5 23/4/5
f 48/6/1 60/20/1 8/21/1
f 28/1/1 25/10/1 26/2/1
f 8/21/1 17/9/1 48/6/1
f 17/9/1 23/4/1 48/6/1
f 24/7/2 28/1/2 27/3/2
f 23/4/3 25/10/3 28/1/3
f 17/9/4 26/2/4 25/10/4
f 31/11/1 37/15/1 34/12/1
f 31/11/1 36/22/1 35/14/1
f 38/16/1 33/19/1 30/17/1
f 38/16/1 37/15/1 35/14/1
f 23/4/5 38/16/5 29/18/5
f 20/8/4 34/12/4 37/15/4
f 24/7/5 37/15/5 38/16/5
f 48/6/1 61/23/1 60/20/1
usemtl Ac_side
f 58/24/3 69/25/3 57/26/3
f 1/27/2 3/28/2 21/29/2
f 21/29/2 32/30/2 4/31/2
f 3/28/2 31/32/2 21/29/2
f 43/33/4 29/34/4 30/35/4
f 97/36/4 45/37/4 46/38/4
f 43/33/4 40/39/4 42/40/4
f 42/40/1 91/41/1 93/42/1
f 41/43/3 47/44/3 42/40/3
f 75/45/4 65/46/4 74/47/4
f 54/48/4 52/49/4 42/40/4
f 55/50/6 66/51/6 54/48/6
f 52/49/3 63/52/3 51/53/3
f 49/54/6 70/55/6 58/24/6
f 56/56/7 67/57/7 55/50/7
f 53/58/6 64/59/6 52/49/6
f 50/60/3 61/61/3 48/62/3
f 57/26/6 68/63/6 56/56/6
f 54/48/3 65/46/3 53/58/3
f 51/53/6 62/64/6 50/60/6
f 83/65/4 90/66/4 87/67/4
f 78/68/8 89/69/8 79/70/8
f 75/45/9 86/71/9 76/72/9
f 71/73/1 83/65/1 73/74/1
f 79/70/10 90/66/10 80/75/10
f 76/72/5 87/67/5 77/76/5
f 73/74/11 84/77/11 74/47/11
f 80/75/6 82/78/6 72/79/6
f 77/76/12 88/80/12 78/68/12
f 74/47/13 85/81/13 75/45/13
f 91/41/4 44/82/4 92/83/4
f 93/42/4 92/83/4 94/84/4
f 95/85/4 94/84/4 96/86/4
f 97/36/4 96/86/4 98/87/4
f 102/88/4 100/89/4 101/90/4
f 40/39/1 102/88/1 42/40/1
f 42/40/5 101/90/5 41/43/5
f 58/24/3 70/55/3 69/25/3
f 4/31/2 2/91/2 21/29/2
f 2/91/2 1/27/2 21/29/2
f 21/29/2 31/32/2 32/30/2
f 3/28/2 36/92/2 31/32/2
f 30/35/4 7/93/4 43/33/4
f 43/33/4 22/94/4 29/34/4
f 97/36/4 98/87/4 45/37/4
f 43/33/4 7/93/4 40/39/4
f 46/38/1 39/95/1 97/36/1
f 39/95/1 42/40/1 95/85/1
f 97/36/1 39/95/1 95/85/1
f 42/40/1 47/44/1 91/41/1
f 93/42/1 95/85/1 42/40/1
f 41/43/3 44/82/3 47/44/3
f 72/79/4 60/96/4 80/75/4
f 60/96/4 61/61/4 80/75/4
f 61/61/4 62/64/4 63/52/4
f 63/52/4 64/59/4 76/72/4
f 64/59/4 65/46/4 75/45/4
f 76/72/4 64/59/4 75/45/4
f 65/46/4 66/51/4 67/57/4
f 65/46/4 67/57/4 68/63/4
f 61/61/4 63/52/4 79/70/4
f 80/75/4 61/61/4 79/70/4
f 65/46/4 68/63/4 74/47/4
f 69/25/4 70/55/4 59/97/4
f 69/25/4 59/97/4 71/73/4
f 69/25/4 71/73/4 73/74/4
f 78/68/4 79/70/4 63/52/4
f 77/76/4 78/68/4 63/52/4
f 68/63/4 69/25/4 73/74/4
f 68/63/4 73/74/4 74/47/4
f 77/76/4 63/52/4 76/72/4
f 39/95/4 49/54/4 58/24/4
f 58/24/4 57/26/4 56/56/4
f 58/24/4 56/56/4 55/50/4
f 42/40/4 39/95/4 54/48/4
f 39/95/4 58/24/4 55/50/4
f 54/48/4 39/95/4 55/50/4
f 22/94/4 43/33/4 42/40/4
f 50/60/4 48/62/4 22/94/4
f 52/49/4 51/53/4 50/60/4
f 54/48/4 53/58/4 52/49/4
f 50/60/4 22/94/4 52/49/4
f 22/94/4 42/40/4 52/49/4
f 55/50/6 67/57/6 66/51/6
f 52/49/3 64/59/3 63/52/3
f 49/54/6 59/97/6 70/55/6
f 56/56/7 68/63/7 67/57/7
f 53/58/6 65/46/6 64/59/6
f 50/60/3 62/64/3 61/61/3
f 57/26/6 69/25/6 68/63/6
f 54/48/3 66/51/3 65/46/3
f 51/53/6 63/52/6 62/64/6
f 81/98/4 82/78/4 90/66/4
f 90/66/4 89/69/4 88/80/4
f 88/80/4 87/67/4 90/66/4
f 87/67/4 86/71/4 83/65/4
f 86/71/4 85/81/4 83/65/4
f 85/81/4 84/77/4 83/65/4
f 83/65/4 81/98/4 90/66/4
f 78/68/8 88/80/8 89/69/8
f 75/45/14 85/81/14 86/71/14
f 71/73/1 81/98/1 83/65/1
f 79/70/15 89/69/15 90/66/15
f 76/72/5 86/71/5 87/67/5
f 73/74/11 83/65/11 84/77/11
f 80/75/6 90/66/6 82/78/6
f 77/76/16 87/67/16 88/80/16
f 74/47/17 84/77/17 85/81/17
f 91/41/4 47/44/4 44/82/4
f 93/42/4 91/41/4 92/83/4
f 95/85/4 93/42/4 94/84/4
f 97/36/4 95/85/4 96/86/4
f 102/88/4 99/99/4 100/89/4
f 40/39/1 99/99/1 102/88/1
f 42/40/5 102/88/5 101/90/5
usemtl Ac_top
f 19/100/3 1/101/3 18/102/3
f 19/100/3 36/103/3 3/104/3
f 18/102/3 35/105/3 19/100/3
f 7/106/3 33/107/3 18/102/3
f 5/108/3 99/109/3 40/110/3
f 3/104/3 1/101/3 19/100/3
f 1/101/3 5/108/3 40/110/3
f 40/110/3 7/106/3 18/102/3
f 1/101/3 40/110/3 18/102/3
f 19/100/3 35/105/3 36/103/3
f 18/102/3 33/107/3 35/105/3
f 7/106/3 30/111/3 33/107/3
f 5/108/3 100/112/3 99/109/3
usemtl Ac_bottom
f 4/113/5 34/114/5 20/115/5
f 39/116/5 2/117/5 17/118/5
f 20/115/5 26/119/5 17/118/5
f 39/116/5 45/120/5 6/121/5
f 8/122/5 72/123/5 71/124/5
f 72/123/3 81/125/3 71/124/3
f 4/113/5 32/126/5 34/114/5
f 39/116/5 6/121/5 2/117/5
f 2/117/5 4/113/5 20/115/5
f 17/118/5 8/122/5 49/127/5
f 2/117/5 20/115/5 17/118/5
f 49/127/5 39/116/5 17/118/5
f 20/115/5 27/128/5 26/119/5
f 39/116/5 46/129/5 45/120/5
f 59/130/5 49/127/5 71/124/5
f 49/127/5 8/122/5 71/124/5
f 8/122/5 60/131/5 72/123/5
f 72/123/3 82/132/3 81/125/3
usemtl Ac_back
f 16/133/6 13/134/6 14/135/6
f 16/133/6 15/136/6 13/134/6
usemtl Ac_back_02
f 41/137/6 12/138/6 10/139/6
f 12/140/2 14/141/2 10/142/2
f 6/143/6 9/144/6 2/145/6
f 1/146/6 12/138/6 5/147/6
f 2/145/6 11/148/6 1/146/6
f 10/149/3 13/150/3 9/151/3
f 11/152/5 16/153/5 12/154/5
f 9/155/4 15/156/4 11/157/4
f 6/143/6 98/158/6 96/159/6
f 41/137/6 100/160/6 5/147/6
f 10/139/6 6/143/6 41/137/6
f 41/137/6 5/147/6 12/138/6
f 12/140/2 16/161/2 14/141/2
f 6/143/6 10/139/6 9/144/6
f 1/146/6 11/148/6 12/138/6
f 2/145/6 9/144/6 11/148/6
f 10/149/3 14/162/3 13/150/3
f 11/152/5 15/163/5 16/153/5
f 9/155/4 13/164/4 15/156/4
f 44/165/6 41/137/6 92/166/6
f 41/137/6 6/143/6 96/159/6
f 92/166/6 41/137/6 94/167/6
f 6/143/6 45/168/6 98/158/6
f 96/159/6 94/167/6 41/137/6
f 41/137/6 101/169/6 100/160/6
